<svg xmlns="http://www.w3.org/2000/svg" width="155" height="155" viewBox="0 0 155 155">
  <g id="Group_160423" data-name="Group 160423" transform="translate(-1019.029 -6850.029)">
    <circle id="Ellipse_39" data-name="Ellipse 39" cx="77.5" cy="77.5" r="77.5" transform="translate(1019.029 6850.029)" fill="#f3c14d"/>
    <g id="noun-study-2773411" transform="translate(1065.643 6890.34)">
      <path id="Path_52381" data-name="Path 52381" d="M243.145,285.41H196.7a1.451,1.451,0,0,0-1.109.5,1.431,1.431,0,0,0-.355,1.154l2.647,22.119h44.078l2.662-22.119a1.5,1.5,0,0,0-.369-1.154,1.453,1.453,0,0,0-1.11-.5Z" transform="translate(-189.401 -247.587)" fill="rgba(255,255,255,0.5)"/>
      <path id="Path_52382" data-name="Path 52382" d="M239.946,454.16H199.89a4.687,4.687,0,0,0,0,9.374h40.056a4.687,4.687,0,0,0,0-9.374Z" transform="translate(-189.396 -389.604)" fill="rgba(255,255,255,0.5)"/>
      <path id="Path_52383" data-name="Path 52383" d="M207.829,225.136l-6.489-.443a18.035,18.035,0,0,1-25.063,0l-6.479.442a12.191,12.191,0,0,0-11.327,12.127v16.844a9.837,9.837,0,0,0,3.908,7.836,7.644,7.644,0,0,1,1.8-2.116l-2.817-23.507a4.435,4.435,0,0,1,4.4-4.964h46.454a4.435,4.435,0,0,1,4.4,4.965l-2.817,23.508a7.658,7.658,0,0,1,1.689,1.912,9.821,9.821,0,0,0,3.659-7.634l0-16.845a12.19,12.19,0,0,0-11.327-12.127Z" transform="translate(-158.471 -196.489)" fill="#fff"/>
      <path id="Path_52384" data-name="Path 52384" d="M284.606,61.821A15.156,15.156,0,1,1,269.45,46.666a15.156,15.156,0,0,1,15.156,15.155" transform="translate(-239.113 -46.666)" fill="#fff"/>
    </g>
  </g>
</svg>
