<svg xmlns="http://www.w3.org/2000/svg" xmlns:xlink="http://www.w3.org/1999/xlink" width="155" height="155" viewBox="0 0 155 155">
  <defs>
    <clipPath id="clip-path">
      <rect id="Rectangle_7287" data-name="Rectangle 7287" width="80.031" height="87.148" fill="#fff"/>
    </clipPath>
  </defs>
  <g id="Group_178092" data-name="Group 178092" transform="translate(-1556 -7643)">
    <g id="Group_160980" data-name="Group 160980" transform="translate(536.971 792.971)">
      <circle id="Ellipse_39" data-name="Ellipse 39" cx="77.5" cy="77.5" r="77.5" transform="translate(1019.029 6850.029)" fill="#f5a366"/>
    </g>
    <g id="Group_161093" data-name="Group 161093" transform="translate(1593 7677)">
      <g id="Group_161092" data-name="Group 161092" clip-path="url(#clip-path)">
        <path id="Path_53296" data-name="Path 53296" d="M127.527,187.044a6.3,6.3,0,1,1-6.3-6.3,6.3,6.3,0,0,1,6.3,6.3" transform="translate(-94.245 -148.216)" fill="#fff" opacity="0.7"/>
        <path id="Path_53297" data-name="Path 53297" d="M40.684,214.737l10.94-6.564a1.79,1.79,0,0,1,2.7,1.7L53.05,223.908a1.789,1.789,0,0,1-.708,1.27l-11.986,8.99a1.79,1.79,0,0,0-.716,1.432v2.226a1.79,1.79,0,0,0,2.853,1.439l31.939-23.608a1.79,1.79,0,0,1,2.829,1.733l-.689,4.135a1.789,1.789,0,0,0,1.2,1.992l1.516.506a1.79,1.79,0,0,0,2.338-1.445l1.358-9.509h0a5,5,0,0,0-7.893-4.752l-5.5,4a1.79,1.79,0,0,1-2.831-1.645l1.118-10.058a1.79,1.79,0,0,1,.909-1.367l13.278-7.378a1.789,1.789,0,0,0,.92-1.564v-2.574a1.79,1.79,0,0,0-2.659-1.564L38.894,209.184a1.79,1.79,0,0,0-.92,1.564V213.2a1.79,1.79,0,0,0,2.711,1.535" transform="translate(-31.139 -152.47)" fill="#fff" opacity="0.7"/>
        <path id="Path_53298" data-name="Path 53298" d="M38.062,1.215,27.385,22.85a2.18,2.18,0,0,1-1.641,1.192L1.868,27.512A2.179,2.179,0,0,0,.66,31.229l16.3,15.89a2.178,2.178,0,0,0,3.23-2.91,8.661,8.661,0,1,1,14.937-8.3,2.176,2.176,0,0,0,3.107,1.167L50.708,30.15a2.362,2.362,0,0,1,3.505,2.065v6.671A2.363,2.363,0,0,1,53,40.95l-12.959,7.2a2.179,2.179,0,0,0-1.108,1.663l-.273,2.449a2.179,2.179,0,0,0,3.447,2l.451-.328h0a7.365,7.365,0,0,1,11.629,7L52.966,69.49a2.179,2.179,0,0,0,1.143,2.237l8.274,4.352a2.179,2.179,0,0,0,3.162-2.3L61.467,50a2.179,2.179,0,0,1,.627-1.929L79.37,31.229a2.179,2.179,0,0,0-1.208-3.717l-23.877-3.47a2.179,2.179,0,0,1-1.641-1.192L41.97,1.215a2.179,2.179,0,0,0-3.908,0" transform="translate(0 0)" fill="#fff"/>
      </g>
    </g>
  </g>
</svg>
