<svg xmlns="http://www.w3.org/2000/svg" xmlns:xlink="http://www.w3.org/1999/xlink" width="20.597" height="29.179" viewBox="0 0 20.597 29.179">
  <defs>
    <clipPath id="clip-path">
      <path id="Path_52792" data-name="Path 52792" d="M18.491-13.673A10,10,0,0,0,10.3-18a10,10,0,0,0-8.193,4.327,11.7,11.7,0,0,0,0,13.394L10.3,11.179,18.491-.278A11.7,11.7,0,0,0,18.491-13.673Zm-8.193.659a5.6,5.6,0,0,1,5.385,5.77A5.6,5.6,0,0,1,10.3-1.474a5.6,5.6,0,0,1-5.385-5.77A5.6,5.6,0,0,1,10.3-13.013Z" transform="translate(0 18)" fill="none"/>
    </clipPath>
    <clipPath id="clip-path-2">
      <path id="Path_52791" data-name="Path 52791" d="M-264,2725.206H2207.629V-790H-264Z" transform="translate(264 790)" fill="none"/>
    </clipPath>
  </defs>
  <g id="Group_161005" data-name="Group 161005" clip-path="url(#clip-path)">
    <g id="Group_161004" data-name="Group 161004" transform="translate(-453.132 -1325.068)" clip-path="url(#clip-path-2)">
      <path id="Path_52790" data-name="Path 52790" d="M-1-19H23.732V13.612H-1Z" transform="translate(452.416 1342.351)" fill="#a89a9a"/>
    </g>
  </g>
</svg>
