<svg xmlns="http://www.w3.org/2000/svg" xmlns:xlink="http://www.w3.org/1999/xlink" width="133.225" height="163" viewBox="0 0 133.225 163">
  <defs>
    <clipPath id="clip-path">
      <rect id="Rectangle_590" data-name="Rectangle 590" width="115" height="58" transform="translate(1104 1427)" fill="#fff" stroke="#707070" stroke-width="1"/>
    </clipPath>
  </defs>
  <g id="Group_178089" data-name="Group 178089" transform="translate(-902.775 -6481)">
    <g id="Group_160967" data-name="Group 160967" transform="translate(2594.775 8639.462) rotate(180)">
      <g id="Mask_Group_79" data-name="Mask Group 79" transform="translate(2796 3502.628) rotate(180)" clip-path="url(#clip-path)">
        <ellipse id="Ellipse_18853" data-name="Ellipse 18853" cx="56.5" cy="56" rx="56.5" ry="56" transform="translate(1105 1372)" fill="#f3c14d"/>
      </g>
      <g id="Group_39310" data-name="Group 39310" transform="translate(2467.822 4421.011) rotate(180)" opacity="0.5">
        <circle id="Ellipse_1" data-name="Ellipse 1" cx="1.201" cy="1.201" r="1.201" transform="translate(909.048 2288.011) rotate(90)" fill="#fff"/>
        <circle id="Ellipse_1-2" data-name="Ellipse 1" cx="1.201" cy="1.201" r="1.201" transform="translate(909.048 2297.02) rotate(90)" fill="#fff"/>
        <circle id="Ellipse_1-3" data-name="Ellipse 1" cx="1.201" cy="1.201" r="1.201" transform="translate(909.048 2306.029) rotate(90)" fill="#fff"/>
        <circle id="Ellipse_1-4" data-name="Ellipse 1" cx="1.201" cy="1.201" r="1.201" transform="translate(909.048 2315.038) rotate(90)" fill="#fff"/>
        <circle id="Ellipse_1-5" data-name="Ellipse 1" cx="1.201" cy="1.201" r="1.201" transform="translate(909.048 2324.047) rotate(90)" fill="#fff"/>
        <circle id="Ellipse_1-6" data-name="Ellipse 1" cx="1.201" cy="1.201" r="1.201" transform="translate(909.048 2333.057) rotate(90)" fill="#fff"/>
        <circle id="Ellipse_1-7" data-name="Ellipse 1" cx="1.201" cy="1.201" r="1.201" transform="translate(909.048 2342.066) rotate(90)" fill="#fff"/>
        <circle id="Ellipse_1-8" data-name="Ellipse 1" cx="1.201" cy="1.201" r="1.201" transform="translate(909.048 2351.075) rotate(90)" fill="#fff"/>
        <circle id="Ellipse_1-9" data-name="Ellipse 1" cx="1.201" cy="1.201" r="1.201" transform="translate(909.048 2360.084) rotate(90)" fill="#fff"/>
        <circle id="Ellipse_1-10" data-name="Ellipse 1" cx="1.201" cy="1.201" r="1.201" transform="translate(909.048 2369.093) rotate(90)" fill="#fff"/>
        <circle id="Ellipse_1-11" data-name="Ellipse 1" cx="1.201" cy="1.201" r="1.201" transform="translate(909.048 2378.102) rotate(90)" fill="#fff"/>
        <circle id="Ellipse_1-12" data-name="Ellipse 1" cx="1.201" cy="1.201" r="1.201" transform="translate(909.048 2387.111) rotate(90)" fill="#fff"/>
        <circle id="Ellipse_1-13" data-name="Ellipse 1" cx="1.201" cy="1.201" r="1.201" transform="translate(909.048 2396.12) rotate(90)" fill="#fff"/>
        <circle id="Ellipse_1-14" data-name="Ellipse 1" cx="1.201" cy="1.201" r="1.201" transform="translate(909.048 2405.129) rotate(90)" fill="#fff"/>
        <circle id="Ellipse_1-15" data-name="Ellipse 1" cx="1.201" cy="1.201" r="1.201" transform="translate(909.048 2414.138) rotate(90)" fill="#fff"/>
        <circle id="Ellipse_1-16" data-name="Ellipse 1" cx="1.201" cy="1.201" r="1.201" transform="translate(909.048 2423.147) rotate(90)" fill="#fff"/>
        <circle id="Ellipse_1-17" data-name="Ellipse 1" cx="1.201" cy="1.201" r="1.201" transform="translate(898.237 2288.011) rotate(90)" fill="#fff"/>
        <circle id="Ellipse_1-18" data-name="Ellipse 1" cx="1.201" cy="1.201" r="1.201" transform="translate(898.237 2297.02) rotate(90)" fill="#fff"/>
        <circle id="Ellipse_1-19" data-name="Ellipse 1" cx="1.201" cy="1.201" r="1.201" transform="translate(898.237 2306.029) rotate(90)" fill="#fff"/>
        <circle id="Ellipse_1-20" data-name="Ellipse 1" cx="1.201" cy="1.201" r="1.201" transform="translate(898.237 2315.038) rotate(90)" fill="#fff"/>
        <circle id="Ellipse_1-21" data-name="Ellipse 1" cx="1.201" cy="1.201" r="1.201" transform="translate(898.237 2324.047) rotate(90)" fill="#fff"/>
        <circle id="Ellipse_1-22" data-name="Ellipse 1" cx="1.201" cy="1.201" r="1.201" transform="translate(898.237 2333.057) rotate(90)" fill="#fff"/>
        <circle id="Ellipse_1-23" data-name="Ellipse 1" cx="1.201" cy="1.201" r="1.201" transform="translate(898.237 2342.066) rotate(90)" fill="#fff"/>
        <circle id="Ellipse_1-24" data-name="Ellipse 1" cx="1.201" cy="1.201" r="1.201" transform="translate(898.237 2351.075) rotate(90)" fill="#fff"/>
        <circle id="Ellipse_1-25" data-name="Ellipse 1" cx="1.201" cy="1.201" r="1.201" transform="translate(898.237 2360.084) rotate(90)" fill="#fff"/>
        <circle id="Ellipse_1-26" data-name="Ellipse 1" cx="1.201" cy="1.201" r="1.201" transform="translate(898.237 2369.093) rotate(90)" fill="#fff"/>
        <circle id="Ellipse_1-27" data-name="Ellipse 1" cx="1.201" cy="1.201" r="1.201" transform="translate(898.237 2378.102) rotate(90)" fill="#fff"/>
        <circle id="Ellipse_1-28" data-name="Ellipse 1" cx="1.201" cy="1.201" r="1.201" transform="translate(898.237 2387.111) rotate(90)" fill="#fff"/>
        <circle id="Ellipse_1-29" data-name="Ellipse 1" cx="1.201" cy="1.201" r="1.201" transform="translate(898.237 2396.12) rotate(90)" fill="#fff"/>
        <circle id="Ellipse_1-30" data-name="Ellipse 1" cx="1.201" cy="1.201" r="1.201" transform="translate(898.237 2405.129) rotate(90)" fill="#fff"/>
        <circle id="Ellipse_1-31" data-name="Ellipse 1" cx="1.201" cy="1.201" r="1.201" transform="translate(898.237 2414.138) rotate(90)" fill="#fff"/>
        <circle id="Ellipse_1-32" data-name="Ellipse 1" cx="1.201" cy="1.201" r="1.201" transform="translate(898.237 2423.147) rotate(90)" fill="#fff"/>
        <circle id="Ellipse_1-33" data-name="Ellipse 1" cx="1.201" cy="1.201" r="1.201" transform="translate(887.426 2288.011) rotate(90)" fill="#fff"/>
        <circle id="Ellipse_1-34" data-name="Ellipse 1" cx="1.201" cy="1.201" r="1.201" transform="translate(887.426 2297.02) rotate(90)" fill="#fff"/>
        <circle id="Ellipse_1-35" data-name="Ellipse 1" cx="1.201" cy="1.201" r="1.201" transform="translate(887.426 2306.029) rotate(90)" fill="#fff"/>
        <circle id="Ellipse_1-36" data-name="Ellipse 1" cx="1.201" cy="1.201" r="1.201" transform="translate(887.426 2315.038) rotate(90)" fill="#fff"/>
        <circle id="Ellipse_1-37" data-name="Ellipse 1" cx="1.201" cy="1.201" r="1.201" transform="translate(887.426 2324.047) rotate(90)" fill="#fff"/>
        <circle id="Ellipse_1-38" data-name="Ellipse 1" cx="1.201" cy="1.201" r="1.201" transform="translate(887.426 2333.057) rotate(90)" fill="#fff"/>
        <circle id="Ellipse_1-39" data-name="Ellipse 1" cx="1.201" cy="1.201" r="1.201" transform="translate(887.426 2342.066) rotate(90)" fill="#fff"/>
        <circle id="Ellipse_1-40" data-name="Ellipse 1" cx="1.201" cy="1.201" r="1.201" transform="translate(887.426 2351.075) rotate(90)" fill="#fff"/>
        <circle id="Ellipse_1-41" data-name="Ellipse 1" cx="1.201" cy="1.201" r="1.201" transform="translate(887.426 2360.084) rotate(90)" fill="#fff"/>
        <circle id="Ellipse_1-42" data-name="Ellipse 1" cx="1.201" cy="1.201" r="1.201" transform="translate(887.426 2369.093) rotate(90)" fill="#fff"/>
        <circle id="Ellipse_1-43" data-name="Ellipse 1" cx="1.201" cy="1.201" r="1.201" transform="translate(887.426 2378.102) rotate(90)" fill="#fff"/>
        <circle id="Ellipse_1-44" data-name="Ellipse 1" cx="1.201" cy="1.201" r="1.201" transform="translate(887.426 2387.111) rotate(90)" fill="#fff"/>
        <circle id="Ellipse_1-45" data-name="Ellipse 1" cx="1.201" cy="1.201" r="1.201" transform="translate(887.426 2396.12) rotate(90)" fill="#fff"/>
        <circle id="Ellipse_1-46" data-name="Ellipse 1" cx="1.201" cy="1.201" r="1.201" transform="translate(887.426 2405.129) rotate(90)" fill="#fff"/>
        <circle id="Ellipse_1-47" data-name="Ellipse 1" cx="1.201" cy="1.201" r="1.201" transform="translate(887.426 2414.138) rotate(90)" fill="#fff"/>
        <circle id="Ellipse_1-48" data-name="Ellipse 1" cx="1.201" cy="1.201" r="1.201" transform="translate(887.426 2423.147) rotate(90)" fill="#fff"/>
        <circle id="Ellipse_1-49" data-name="Ellipse 1" cx="1.201" cy="1.201" r="1.201" transform="translate(876.615 2288.011) rotate(90)" fill="#fff"/>
        <circle id="Ellipse_1-50" data-name="Ellipse 1" cx="1.201" cy="1.201" r="1.201" transform="translate(876.615 2297.02) rotate(90)" fill="#fff"/>
        <circle id="Ellipse_1-51" data-name="Ellipse 1" cx="1.201" cy="1.201" r="1.201" transform="translate(876.615 2306.029) rotate(90)" fill="#fff"/>
        <circle id="Ellipse_1-52" data-name="Ellipse 1" cx="1.201" cy="1.201" r="1.201" transform="translate(876.615 2315.038) rotate(90)" fill="#fff"/>
        <circle id="Ellipse_1-53" data-name="Ellipse 1" cx="1.201" cy="1.201" r="1.201" transform="translate(876.615 2324.047) rotate(90)" fill="#fff"/>
        <circle id="Ellipse_1-54" data-name="Ellipse 1" cx="1.201" cy="1.201" r="1.201" transform="translate(876.615 2333.057) rotate(90)" fill="#fff"/>
        <circle id="Ellipse_1-55" data-name="Ellipse 1" cx="1.201" cy="1.201" r="1.201" transform="translate(876.615 2342.066) rotate(90)" fill="#fff"/>
        <circle id="Ellipse_1-56" data-name="Ellipse 1" cx="1.201" cy="1.201" r="1.201" transform="translate(876.615 2351.075) rotate(90)" fill="#fff"/>
        <circle id="Ellipse_1-57" data-name="Ellipse 1" cx="1.201" cy="1.201" r="1.201" transform="translate(876.615 2360.084) rotate(90)" fill="#fff"/>
        <circle id="Ellipse_1-58" data-name="Ellipse 1" cx="1.201" cy="1.201" r="1.201" transform="translate(876.615 2369.093) rotate(90)" fill="#fff"/>
        <circle id="Ellipse_1-59" data-name="Ellipse 1" cx="1.201" cy="1.201" r="1.201" transform="translate(876.615 2378.102) rotate(90)" fill="#fff"/>
        <circle id="Ellipse_1-60" data-name="Ellipse 1" cx="1.201" cy="1.201" r="1.201" transform="translate(876.615 2387.111) rotate(90)" fill="#fff"/>
        <circle id="Ellipse_1-61" data-name="Ellipse 1" cx="1.201" cy="1.201" r="1.201" transform="translate(876.615 2396.12) rotate(90)" fill="#fff"/>
        <circle id="Ellipse_1-62" data-name="Ellipse 1" cx="1.201" cy="1.201" r="1.201" transform="translate(876.615 2405.129) rotate(90)" fill="#fff"/>
        <circle id="Ellipse_1-63" data-name="Ellipse 1" cx="1.201" cy="1.201" r="1.201" transform="translate(876.615 2414.138) rotate(90)" fill="#fff"/>
        <circle id="Ellipse_1-64" data-name="Ellipse 1" cx="1.201" cy="1.201" r="1.201" transform="translate(876.615 2423.147) rotate(90)" fill="#fff"/>
        <circle id="Ellipse_1-65" data-name="Ellipse 1" cx="1.201" cy="1.201" r="1.201" transform="translate(865.804 2288.011) rotate(90)" fill="#fff"/>
        <circle id="Ellipse_1-66" data-name="Ellipse 1" cx="1.201" cy="1.201" r="1.201" transform="translate(865.804 2297.02) rotate(90)" fill="#fff"/>
        <circle id="Ellipse_1-67" data-name="Ellipse 1" cx="1.201" cy="1.201" r="1.201" transform="translate(865.804 2306.029) rotate(90)" fill="#fff"/>
        <circle id="Ellipse_1-68" data-name="Ellipse 1" cx="1.201" cy="1.201" r="1.201" transform="translate(865.804 2315.038) rotate(90)" fill="#fff"/>
        <circle id="Ellipse_1-69" data-name="Ellipse 1" cx="1.201" cy="1.201" r="1.201" transform="translate(865.804 2324.047) rotate(90)" fill="#fff"/>
        <circle id="Ellipse_1-70" data-name="Ellipse 1" cx="1.201" cy="1.201" r="1.201" transform="translate(865.804 2333.057) rotate(90)" fill="#fff"/>
        <circle id="Ellipse_1-71" data-name="Ellipse 1" cx="1.201" cy="1.201" r="1.201" transform="translate(865.804 2342.066) rotate(90)" fill="#fff"/>
        <circle id="Ellipse_1-72" data-name="Ellipse 1" cx="1.201" cy="1.201" r="1.201" transform="translate(865.804 2351.075) rotate(90)" fill="#fff"/>
        <circle id="Ellipse_1-73" data-name="Ellipse 1" cx="1.201" cy="1.201" r="1.201" transform="translate(865.804 2360.084) rotate(90)" fill="#fff"/>
        <circle id="Ellipse_1-74" data-name="Ellipse 1" cx="1.201" cy="1.201" r="1.201" transform="translate(865.804 2369.093) rotate(90)" fill="#fff"/>
        <circle id="Ellipse_1-75" data-name="Ellipse 1" cx="1.201" cy="1.201" r="1.201" transform="translate(865.804 2378.102) rotate(90)" fill="#fff"/>
        <circle id="Ellipse_1-76" data-name="Ellipse 1" cx="1.201" cy="1.201" r="1.201" transform="translate(865.804 2387.111) rotate(90)" fill="#fff"/>
        <circle id="Ellipse_1-77" data-name="Ellipse 1" cx="1.201" cy="1.201" r="1.201" transform="translate(865.804 2396.12) rotate(90)" fill="#fff"/>
        <circle id="Ellipse_1-78" data-name="Ellipse 1" cx="1.201" cy="1.201" r="1.201" transform="translate(865.804 2405.129) rotate(90)" fill="#fff"/>
        <circle id="Ellipse_1-79" data-name="Ellipse 1" cx="1.201" cy="1.201" r="1.201" transform="translate(865.804 2414.138) rotate(90)" fill="#fff"/>
        <circle id="Ellipse_1-80" data-name="Ellipse 1" cx="1.201" cy="1.201" r="1.201" transform="translate(865.804 2423.147) rotate(90)" fill="#fff"/>
        <circle id="Ellipse_1-81" data-name="Ellipse 1" cx="1.201" cy="1.201" r="1.201" transform="translate(854.993 2288.011) rotate(90)" fill="#fff"/>
        <circle id="Ellipse_1-82" data-name="Ellipse 1" cx="1.201" cy="1.201" r="1.201" transform="translate(854.993 2297.02) rotate(90)" fill="#fff"/>
        <circle id="Ellipse_1-83" data-name="Ellipse 1" cx="1.201" cy="1.201" r="1.201" transform="translate(854.993 2306.029) rotate(90)" fill="#fff"/>
        <circle id="Ellipse_1-84" data-name="Ellipse 1" cx="1.201" cy="1.201" r="1.201" transform="translate(854.993 2315.038) rotate(90)" fill="#fff"/>
        <circle id="Ellipse_1-85" data-name="Ellipse 1" cx="1.201" cy="1.201" r="1.201" transform="translate(854.993 2324.047) rotate(90)" fill="#fff"/>
        <circle id="Ellipse_1-86" data-name="Ellipse 1" cx="1.201" cy="1.201" r="1.201" transform="translate(854.993 2333.057) rotate(90)" fill="#fff"/>
        <circle id="Ellipse_1-87" data-name="Ellipse 1" cx="1.201" cy="1.201" r="1.201" transform="translate(854.993 2342.066) rotate(90)" fill="#fff"/>
        <circle id="Ellipse_1-88" data-name="Ellipse 1" cx="1.201" cy="1.201" r="1.201" transform="translate(854.993 2351.075) rotate(90)" fill="#fff"/>
        <circle id="Ellipse_1-89" data-name="Ellipse 1" cx="1.201" cy="1.201" r="1.201" transform="translate(854.993 2360.084) rotate(90)" fill="#fff"/>
        <circle id="Ellipse_1-90" data-name="Ellipse 1" cx="1.201" cy="1.201" r="1.201" transform="translate(854.993 2369.093) rotate(90)" fill="#fff"/>
        <circle id="Ellipse_1-91" data-name="Ellipse 1" cx="1.201" cy="1.201" r="1.201" transform="translate(854.993 2378.102) rotate(90)" fill="#fff"/>
        <circle id="Ellipse_1-92" data-name="Ellipse 1" cx="1.201" cy="1.201" r="1.201" transform="translate(854.993 2387.111) rotate(90)" fill="#fff"/>
        <circle id="Ellipse_1-93" data-name="Ellipse 1" cx="1.201" cy="1.201" r="1.201" transform="translate(854.993 2396.12) rotate(90)" fill="#fff"/>
        <circle id="Ellipse_1-94" data-name="Ellipse 1" cx="1.201" cy="1.201" r="1.201" transform="translate(854.993 2405.129) rotate(90)" fill="#fff"/>
        <circle id="Ellipse_1-95" data-name="Ellipse 1" cx="1.201" cy="1.201" r="1.201" transform="translate(854.993 2414.138) rotate(90)" fill="#fff"/>
        <circle id="Ellipse_1-96" data-name="Ellipse 1" cx="1.201" cy="1.201" r="1.201" transform="translate(854.993 2423.147) rotate(90)" fill="#fff"/>
        <circle id="Ellipse_1-97" data-name="Ellipse 1" cx="1.201" cy="1.201" r="1.201" transform="translate(844.182 2288.011) rotate(90)" fill="#fff"/>
        <circle id="Ellipse_1-98" data-name="Ellipse 1" cx="1.201" cy="1.201" r="1.201" transform="translate(844.182 2297.02) rotate(90)" fill="#fff"/>
        <circle id="Ellipse_1-99" data-name="Ellipse 1" cx="1.201" cy="1.201" r="1.201" transform="translate(844.182 2306.029) rotate(90)" fill="#fff"/>
        <circle id="Ellipse_1-100" data-name="Ellipse 1" cx="1.201" cy="1.201" r="1.201" transform="translate(844.182 2315.038) rotate(90)" fill="#fff"/>
        <circle id="Ellipse_1-101" data-name="Ellipse 1" cx="1.201" cy="1.201" r="1.201" transform="translate(844.182 2324.047) rotate(90)" fill="#fff"/>
        <circle id="Ellipse_1-102" data-name="Ellipse 1" cx="1.201" cy="1.201" r="1.201" transform="translate(844.182 2333.057) rotate(90)" fill="#fff"/>
        <circle id="Ellipse_1-103" data-name="Ellipse 1" cx="1.201" cy="1.201" r="1.201" transform="translate(844.182 2342.066) rotate(90)" fill="#fff"/>
        <circle id="Ellipse_1-104" data-name="Ellipse 1" cx="1.201" cy="1.201" r="1.201" transform="translate(844.182 2351.075) rotate(90)" fill="#fff"/>
        <circle id="Ellipse_1-105" data-name="Ellipse 1" cx="1.201" cy="1.201" r="1.201" transform="translate(844.182 2360.084) rotate(90)" fill="#fff"/>
        <circle id="Ellipse_1-106" data-name="Ellipse 1" cx="1.201" cy="1.201" r="1.201" transform="translate(844.182 2369.093) rotate(90)" fill="#fff"/>
        <circle id="Ellipse_1-107" data-name="Ellipse 1" cx="1.201" cy="1.201" r="1.201" transform="translate(844.182 2378.102) rotate(90)" fill="#fff"/>
        <circle id="Ellipse_1-108" data-name="Ellipse 1" cx="1.201" cy="1.201" r="1.201" transform="translate(844.182 2387.111) rotate(90)" fill="#fff"/>
        <circle id="Ellipse_1-109" data-name="Ellipse 1" cx="1.201" cy="1.201" r="1.201" transform="translate(844.182 2396.12) rotate(90)" fill="#fff"/>
        <circle id="Ellipse_1-110" data-name="Ellipse 1" cx="1.201" cy="1.201" r="1.201" transform="translate(844.182 2405.129) rotate(90)" fill="#fff"/>
        <circle id="Ellipse_1-111" data-name="Ellipse 1" cx="1.201" cy="1.201" r="1.201" transform="translate(844.182 2414.138) rotate(90)" fill="#fff"/>
        <circle id="Ellipse_1-112" data-name="Ellipse 1" cx="1.201" cy="1.201" r="1.201" transform="translate(844.182 2423.147) rotate(90)" fill="#fff"/>
        <circle id="Ellipse_1-113" data-name="Ellipse 1" cx="1.201" cy="1.201" r="1.201" transform="translate(833.372 2288.011) rotate(90)" fill="#fff"/>
        <circle id="Ellipse_1-114" data-name="Ellipse 1" cx="1.201" cy="1.201" r="1.201" transform="translate(833.372 2297.02) rotate(90)" fill="#fff"/>
        <circle id="Ellipse_1-115" data-name="Ellipse 1" cx="1.201" cy="1.201" r="1.201" transform="translate(833.372 2306.029) rotate(90)" fill="#fff"/>
        <circle id="Ellipse_1-116" data-name="Ellipse 1" cx="1.201" cy="1.201" r="1.201" transform="translate(833.372 2315.038) rotate(90)" fill="#fff"/>
        <circle id="Ellipse_1-117" data-name="Ellipse 1" cx="1.201" cy="1.201" r="1.201" transform="translate(833.372 2324.047) rotate(90)" fill="#fff"/>
        <circle id="Ellipse_1-118" data-name="Ellipse 1" cx="1.201" cy="1.201" r="1.201" transform="translate(833.372 2333.057) rotate(90)" fill="#fff"/>
        <circle id="Ellipse_1-119" data-name="Ellipse 1" cx="1.201" cy="1.201" r="1.201" transform="translate(833.372 2342.066) rotate(90)" fill="#fff"/>
        <circle id="Ellipse_1-120" data-name="Ellipse 1" cx="1.201" cy="1.201" r="1.201" transform="translate(833.372 2351.075) rotate(90)" fill="#fff"/>
        <circle id="Ellipse_1-121" data-name="Ellipse 1" cx="1.201" cy="1.201" r="1.201" transform="translate(833.372 2360.084) rotate(90)" fill="#fff"/>
        <circle id="Ellipse_1-122" data-name="Ellipse 1" cx="1.201" cy="1.201" r="1.201" transform="translate(833.372 2369.093) rotate(90)" fill="#fff"/>
        <circle id="Ellipse_1-123" data-name="Ellipse 1" cx="1.201" cy="1.201" r="1.201" transform="translate(833.372 2378.102) rotate(90)" fill="#fff"/>
        <circle id="Ellipse_1-124" data-name="Ellipse 1" cx="1.201" cy="1.201" r="1.201" transform="translate(833.372 2387.111) rotate(90)" fill="#fff"/>
        <circle id="Ellipse_1-125" data-name="Ellipse 1" cx="1.201" cy="1.201" r="1.201" transform="translate(833.372 2396.12) rotate(90)" fill="#fff"/>
        <circle id="Ellipse_1-126" data-name="Ellipse 1" cx="1.201" cy="1.201" r="1.201" transform="translate(833.372 2405.129) rotate(90)" fill="#fff"/>
        <circle id="Ellipse_1-127" data-name="Ellipse 1" cx="1.201" cy="1.201" r="1.201" transform="translate(833.372 2414.138) rotate(90)" fill="#fff"/>
        <circle id="Ellipse_1-128" data-name="Ellipse 1" cx="1.201" cy="1.201" r="1.201" transform="translate(833.372 2423.147) rotate(90)" fill="#fff"/>
        <circle id="Ellipse_1-129" data-name="Ellipse 1" cx="1.201" cy="1.201" r="1.201" transform="translate(822.561 2288.011) rotate(90)" fill="#fff"/>
        <circle id="Ellipse_1-130" data-name="Ellipse 1" cx="1.201" cy="1.201" r="1.201" transform="translate(822.561 2297.02) rotate(90)" fill="#fff"/>
        <circle id="Ellipse_1-131" data-name="Ellipse 1" cx="1.201" cy="1.201" r="1.201" transform="translate(822.561 2306.029) rotate(90)" fill="#fff"/>
        <circle id="Ellipse_1-132" data-name="Ellipse 1" cx="1.201" cy="1.201" r="1.201" transform="translate(822.561 2315.038) rotate(90)" fill="#fff"/>
        <circle id="Ellipse_1-133" data-name="Ellipse 1" cx="1.201" cy="1.201" r="1.201" transform="translate(822.561 2324.047) rotate(90)" fill="#fff"/>
        <circle id="Ellipse_1-134" data-name="Ellipse 1" cx="1.201" cy="1.201" r="1.201" transform="translate(822.561 2333.057) rotate(90)" fill="#fff"/>
        <circle id="Ellipse_1-135" data-name="Ellipse 1" cx="1.201" cy="1.201" r="1.201" transform="translate(822.561 2342.066) rotate(90)" fill="#fff"/>
        <circle id="Ellipse_1-136" data-name="Ellipse 1" cx="1.201" cy="1.201" r="1.201" transform="translate(822.561 2351.075) rotate(90)" fill="#fff"/>
        <circle id="Ellipse_1-137" data-name="Ellipse 1" cx="1.201" cy="1.201" r="1.201" transform="translate(822.561 2360.084) rotate(90)" fill="#fff"/>
        <circle id="Ellipse_1-138" data-name="Ellipse 1" cx="1.201" cy="1.201" r="1.201" transform="translate(822.561 2369.093) rotate(90)" fill="#fff"/>
        <circle id="Ellipse_1-139" data-name="Ellipse 1" cx="1.201" cy="1.201" r="1.201" transform="translate(822.561 2378.102) rotate(90)" fill="#fff"/>
        <circle id="Ellipse_1-140" data-name="Ellipse 1" cx="1.201" cy="1.201" r="1.201" transform="translate(822.561 2387.111) rotate(90)" fill="#fff"/>
        <circle id="Ellipse_1-141" data-name="Ellipse 1" cx="1.201" cy="1.201" r="1.201" transform="translate(822.561 2396.12) rotate(90)" fill="#fff"/>
        <circle id="Ellipse_1-142" data-name="Ellipse 1" cx="1.201" cy="1.201" r="1.201" transform="translate(822.561 2405.129) rotate(90)" fill="#fff"/>
        <circle id="Ellipse_1-143" data-name="Ellipse 1" cx="1.201" cy="1.201" r="1.201" transform="translate(822.561 2414.138) rotate(90)" fill="#fff"/>
        <circle id="Ellipse_1-144" data-name="Ellipse 1" cx="1.201" cy="1.201" r="1.201" transform="translate(822.561 2423.147) rotate(90)" fill="#fff"/>
      </g>
    </g>
    <text id="_2" data-name="2" transform="translate(960 6589)" fill="#fff" font-size="114" font-family="LotaGrotesque-Bold, Lota Grotesque" font-weight="700"><tspan x="-31" y="0">2</tspan></text>
  </g>
</svg>
