<svg xmlns="http://www.w3.org/2000/svg" width="135" height="135" viewBox="0 0 135 135">
  <g id="Group_178083" data-name="Group 178083" transform="translate(-188 -1446)">
    <circle id="Ellipse_19309" data-name="Ellipse 19309" cx="67.5" cy="67.5" r="67.5" transform="translate(188 1446)" fill="#f57474" opacity="0.1"/>
    <g id="Group_161332" data-name="Group 161332">
      <path id="Path_52775" data-name="Path 52775" d="M17923.381,1879.342s16.055-6.91,18.605-6.912,8.994,2.22,11.295,3.224,9.223,3.688,9.223,3.688-15.557,7.225-17.406,7.1S17923.381,1879.342,17923.381,1879.342Z" transform="translate(-17686 -397)" fill="#fff"/>
      <path id="Path_52776" data-name="Path 52776" d="M17930.068,1895.43c-.4-13.475,24.82,0,24.82,0s3.43,11.634-11.365,12.939C17940.316,1908.836,17930.465,1908.906,17930.068,1895.43Z" transform="translate(-17686 -397)" fill="#fff"/>
      <path id="Path_52777" data-name="Path 52777" d="M17959.027,1911.685l15.613,12.14-15.613,19.826-16.184-12.138Z" transform="translate(-17686 -397)" fill="#fff"/>
      <g id="noun-education-2129338" transform="translate(155.578 1473.265)">
        <path id="Path_52771" data-name="Path 52771" d="M124.216,23.667a3.537,3.537,0,0,0,1.179-6.851V11.451l4.127,1.592v11.2a2.359,2.359,0,0,0,1.179,2.034,14.151,14.151,0,1,0,28.3,0,2.359,2.359,0,0,0,1.179-2.034v-11.2l5.6-2.17c2.417-.938,2.429-2.488,0-3.455L149.091.708a13.509,13.509,0,0,0-8.75.018L123.867,7.4c-2.069.843-2.358,2.117-.831,3.048v6.368a3.537,3.537,0,0,0,1.179,6.851Zm20.636,14.151a11.792,11.792,0,0,1-11.792-11.2h23.525a11.792,11.792,0,0,1-11.733,11.179Zm-3.62-34.881a11.048,11.048,0,0,1,7-.041L163.8,9.14,148.4,15.072a11.933,11.933,0,0,1-7.075,0L125.9,9.122Z" transform="translate(-43.533 0)" fill="#f57474"/>
        <path id="Path_52772" data-name="Path 52772" d="M310.621,293.965l-2.294,2.819-3.149-2.417a1.179,1.179,0,0,0-1.633.188l-16.509,20.318a1.168,1.168,0,0,0,.195,1.675l16.45,12.641a1.182,1.182,0,0,0,1.633-.195l2.294-2.812,3.149,2.417a1.187,1.187,0,0,0,1.633-.189L328.9,308.092a1.179,1.179,0,0,0-.195-1.68l-16.42-12.635a1.179,1.179,0,0,0-1.662.188Zm-6.486,32.658-14.582-11.2,15.124-18.49,14.582,11.2Zm7.075-.59-2.187-1.68,12.8-15.678a1.168,1.168,0,0,0-.195-1.675l-11.4-8.785,1.527-1.875,14.582,11.2Z" transform="translate(-187.191 -253.973)" fill="#f57474"/>
        <path id="Path_52773" data-name="Path 52773" d="M384.43,403.874l-1.492-1.7.59-2.358h0a1.178,1.178,0,0,0-1.663-1.327l-2.081,1.014-1.887-1.179a1.174,1.174,0,0,0-1.786,1.1l.195,2.358-1.8,1.675a1.179,1.179,0,0,0,.59,2.028l2.176.413.82,2.123a1.18,1.18,0,0,0,.99.743h.088a1.179,1.179,0,0,0,1.026-.59l1.179-2.111,2.288-.254h0a1.18,1.18,0,0,0,.761-1.946Z" transform="translate(-262.77 -344.506)" fill="#f57474" opacity="0.5"/>
        <path id="Path_52774" data-name="Path 52774" d="M138.44,289.4a15.958,15.958,0,0,0-1.928-.124h-1.144a16.456,16.456,0,0,1-20.206,0h-.554A16.168,16.168,0,0,0,98.435,305.4v16.881a3.485,3.485,0,0,0,3.485,3.479h34.934l-14.339-11.037a3.534,3.534,0,0,1-.584-5.035Zm-12.883,5.76a1.179,1.179,0,1,1-1.179,1.179A1.179,1.179,0,0,1,125.557,295.163Zm0,4.717a.49.49,0,1,1,0-.012Z" transform="translate(-24.238 -250.304)" fill="#f57474"/>
      </g>
    </g>
  </g>
</svg>
