<svg xmlns="http://www.w3.org/2000/svg" width="135" height="135" viewBox="0 0 135 135">
  <g id="Group_178084" data-name="Group 178084" transform="translate(-608 -1446)">
    <circle id="Ellipse_19309" data-name="Ellipse 19309" cx="67.5" cy="67.5" r="67.5" transform="translate(608 1446)" fill="#97b4fe" opacity="0.1"/>
    <g id="Group_160957" data-name="Group 160957" transform="translate(-4.273 -0.441)">
      <g id="noun-off-3644220" transform="translate(567.137 1362.795)">
        <path id="Path_52780" data-name="Path 52780" d="M80.871,158.078c-1.3-8.714-6.451-20.449,12.773-26.084,6.5-1.023,36.959-1.491,40.523,0,4.617,3.2,18.965,14.554,7.7,29.486-4.037,5.683-5.08,8.172-16.6,8.836s-31.627,0-31.627,0S82.17,166.792,80.871,158.078Z" fill="#fff"/>
        <path id="Path_52778" data-name="Path 52778" d="M173.235,187.078a15.288,15.288,0,1,1-15.288-15.288A15.295,15.295,0,0,1,173.235,187.078Z" transform="translate(-59.584 -36.206)" fill="#97b4fe" fill-rule="evenodd"/>
        <path id="Path_52779" data-name="Path 52779" d="M148.875,129.659c.234-.009.472-.013.712-.013a21.226,21.226,0,0,1,0,42.452H122.447l0-.013c-.234.009-.471.013-.712.013a21.226,21.226,0,1,1,0-42.452h27.14Zm-.091,3c.263-.012.531-.018.8-.018a18.231,18.231,0,1,1,0,36.461H122.447l.09-.018c-.263.013-.531.018-.8.018a18.231,18.231,0,1,1,0-36.461h27.14Z" transform="translate(-23.371)" fill="#97b4fe" fill-rule="evenodd"/>
      </g>
    </g>
  </g>
</svg>
