<svg xmlns="http://www.w3.org/2000/svg" width="135" height="135" viewBox="0 0 135 135">
  <g id="Group_178085" data-name="Group 178085" transform="translate(-1028 -1446)">
    <circle id="Ellipse_19309" data-name="Ellipse 19309" cx="67.5" cy="67.5" r="67.5" transform="translate(1028 1446)" fill="#f3c14d" opacity="0.1"/>
    <g id="Group_160958" data-name="Group 160958" transform="translate(-0.665 0.284)">
      <path id="Path_52784" data-name="Path 52784" d="M1066.152,1493.648h59.672V1542.6h-59.672Z" fill="#fff"/>
      <path id="Path_52781" data-name="Path 52781" d="M18.4,37.188V14.5H15.7a53.582,53.582,0,0,0-5.579,3.429v2.956c1.6-1.092,4.12-2.637,5.349-3.3h.051V37.19H18.4Zm5.052-5.549c.2,2.722,2.527,5.978,7.243,5.978,5.349,0,8.505-4.534,8.505-12.21,0-8.224-3.321-11.346-8.3-11.346a7.474,7.474,0,0,0-7.641,7.692c0,4.933,3.5,7.526,7.127,7.526,3.173,0,5.232-1.6,5.882-3.36h.115c-.017,5.6-1.96,9.2-5.549,9.2a4.209,4.209,0,0,1-4.466-3.487H23.45Zm12.557-9.853A4.984,4.984,0,0,1,30.97,26.8c-2.555,0-4.865-1.629-4.865-5.1a4.81,4.81,0,0,1,4.967-5.147c2.691,0,4.933,1.693,4.933,5.232Z" transform="translate(1070.676 1491.232)" fill="#f3c14d" opacity="0.5"/>
      <path id="Path_52782" data-name="Path 52782" d="M4.253,15.008V57.533a4.253,4.253,0,0,0,4.253,4.253H59.536a4.253,4.253,0,0,0,4.253-4.253V15.008ZM8.505,2.25A8.505,8.505,0,0,0,0,10.755V57.533a8.505,8.505,0,0,0,8.505,8.505H59.536a8.505,8.505,0,0,0,8.505-8.505V10.755A8.505,8.505,0,0,0,59.536,2.25Z" transform="translate(1061.664 1480.719)" fill="#f3c14d" fill-rule="evenodd"/>
      <path id="Path_52783" data-name="Path 52783" d="M8.876,0A2.126,2.126,0,0,1,11,2.126V4.253a2.126,2.126,0,0,1-4.253,0V2.126A2.126,2.126,0,0,1,8.876,0ZM47.149,0a2.126,2.126,0,0,1,2.126,2.126V4.253a2.126,2.126,0,0,1-4.253,0V2.126A2.126,2.126,0,0,1,47.149,0Z" transform="translate(1067.672 1478.716)" fill="#f3c14d" fill-rule="evenodd" opacity="0.5"/>
    </g>
  </g>
</svg>
