<svg xmlns="http://www.w3.org/2000/svg" width="135" height="135" viewBox="0 0 135 135">
  <g id="Group_178086" data-name="Group 178086" transform="translate(-1448 -1446)">
    <circle id="Ellipse_19309" data-name="Ellipse 19309" cx="67.5" cy="67.5" r="67.5" transform="translate(1448 1446)" fill="#2bcbd6" opacity="0.1"/>
    <g id="Group_160959" data-name="Group 160959" transform="translate(1.936 1.162)">
      <circle id="Ellipse_19310" data-name="Ellipse 19310" cx="29" cy="29" r="29" transform="translate(1485 1484)" fill="#fff"/>
      <path id="time" d="M32.977.25A31.776,31.776,0,0,1,56.3,9.9a31.687,31.687,0,0,1,9.653,23.246A31.687,31.687,0,0,1,56.3,56.4a31.776,31.776,0,0,1-23.322,9.653A31.776,31.776,0,0,1,9.655,56.4,31.694,31.694,0,0,1,0,33.149,31.678,31.678,0,0,1,9.653,9.9,31.782,31.782,0,0,1,32.977.25Zm0,59.312A25.368,25.368,0,0,0,51.59,51.838a25.457,25.457,0,0,0,7.723-18.689A25.457,25.457,0,0,0,51.59,14.461,25.368,25.368,0,0,0,32.977,6.737a25.368,25.368,0,0,0-18.613,7.723A25.457,25.457,0,0,0,6.641,33.149a25.457,25.457,0,0,0,7.723,18.689A25.368,25.368,0,0,0,32.977,59.562Z" transform="translate(1481.064 1479.588)" fill="#2bcbd6"/>
      <path id="Path_52785" data-name="Path 52785" d="M19196.859,1893.267h4.736v16.695l14.549,9.358-2.16,4.028-17.125-10.107Z" transform="translate(-17686 -396.267)" fill="#2bcbd6" opacity="0.5"/>
    </g>
  </g>
</svg>
