<svg xmlns="http://www.w3.org/2000/svg" width="39.237" height="27.816" viewBox="0 0 39.237 27.816">
  <g id="Group_161394" data-name="Group 161394" transform="translate(-1402 -4856)">
    <path id="Path_52627" data-name="Path 52627" d="M27.316,30.958l-1.963-2.626a3.822,3.822,0,0,1,6.093-4.615l.943,1.249L35.4,20.48a3.8,3.8,0,0,1,3.187-1.708,3.747,3.747,0,0,1,2.116.637,2.706,2.706,0,0,1,.28.2,9.144,9.144,0,0,0-8.668-5.634A13.729,13.729,0,0,0,5.543,18.262c0,.229.025.484.025.714A7.3,7.3,0,0,0,9.622,32.36h19.2A6.522,6.522,0,0,1,27.316,30.958Zm10.5-.331a.679.679,0,0,1-.127.153,9.2,9.2,0,0,0,3.85-5.711Z" transform="translate(1399.695 4851.456)" fill="#b50303"/>
    <path id="Path_52628" data-name="Path 52628" d="M39.639,23.3,35.69,29.22a3.89,3.89,0,0,1-3.117,1.728l-.115,0a3.9,3.9,0,0,1-3.1-1.541L27.386,26.8a1.275,1.275,0,1,1,2.034-1.539l1.973,2.608a1.366,1.366,0,0,0,1.1.529,1.318,1.318,0,0,0,1.072-.594l3.949-5.923A1.275,1.275,0,1,1,39.639,23.3Z" transform="translate(1399.695 4851.456)" fill="#efa902"/>
  </g>
</svg>
