<svg xmlns="http://www.w3.org/2000/svg" xmlns:xlink="http://www.w3.org/1999/xlink" width="155" height="155" viewBox="0 0 155 155">
  <defs>
    <clipPath id="clip-path">
      <rect id="Rectangle_7289" data-name="Rectangle 7289" width="75" height="75" fill="#fff"/>
    </clipPath>
  </defs>
  <g id="Group_178091" data-name="Group 178091" transform="translate(-1556 -8147)">
    <g id="Group_160982" data-name="Group 160982" transform="translate(536.971 1296.971)">
      <circle id="Ellipse_39" data-name="Ellipse 39" cx="77.5" cy="77.5" r="77.5" transform="translate(1019.029 6850.029)" fill="#9fe2ff"/>
    </g>
    <g id="Group_161097" data-name="Group 161097" transform="translate(1596 8187)">
      <g id="Group_161096" data-name="Group 161096" clip-path="url(#clip-path)">
        <path id="Path_53301" data-name="Path 53301" d="M177.477,118.694c-.177.117-4.444,2.889-14.066,2.889s-13.888-2.772-14.066-2.889a1.333,1.333,0,0,1-.593-1.109V105.7l13.255,4.971h0a4,4,0,0,0,2.808,0L178.07,105.7v11.888a1.333,1.333,0,0,1-.593,1.109Z" transform="translate(-126.097 -89.599)" fill="#fff"/>
        <path id="Path_53302" data-name="Path 53302" d="M19.052,127.476a6.663,6.663,0,1,0-9.428,9.418l9.424,9.424h0a1.332,1.332,0,1,1-1.884,1.884l-9.424-9.423a9.322,9.322,0,0,1,5.587-15.864V111.641a6.667,6.667,0,0,0-6.346-6.662A6.421,6.421,0,0,0,2.21,106.8,7.143,7.143,0,0,0,0,111.948v28.358a9.28,9.28,0,0,0,2.735,6.606l7.529,7.529a1.338,1.338,0,0,1,.4.95v6.89a1.332,1.332,0,0,0,1.333,1.333H30.65a1.332,1.332,0,0,0,1.333-1.333V143.171a6.711,6.711,0,0,0-1.95-4.714Z" transform="translate(0 -88.986)" fill="#fff" opacity="0.7"/>
        <path id="Path_53303" data-name="Path 53303" d="M309.772,106.8a6.423,6.423,0,0,0-4.77-1.823,6.666,6.666,0,0,0-6.346,6.662V122.91a9.322,9.322,0,0,1,5.587,15.864l-9.424,9.423h0a1.333,1.333,0,0,1-1.884-1.885l9.423-9.423a6.663,6.663,0,1,0-9.428-9.418l-10.981,10.981a6.71,6.71,0,0,0-1.95,4.714v19.111a1.332,1.332,0,0,0,1.333,1.333h18.657a1.332,1.332,0,0,0,1.333-1.333v-6.89a1.337,1.337,0,0,1,.4-.95l7.529-7.529a9.278,9.278,0,0,0,2.736-6.606V111.943a7.141,7.141,0,0,0-2.21-5.145Z" transform="translate(-237.355 -88.982)" fill="#fff" opacity="0.7"/>
        <path id="Path_53304" data-name="Path 53304" d="M97.107,10.577l21.322,8a1.346,1.346,0,0,0,.938,0l16.855-6.321v10.4a1.333,1.333,0,1,0,2.665,0v-11.4l1.8-.675a1.334,1.334,0,0,0,0-2.5l-21.322-8a1.339,1.339,0,0,0-.938,0l-21.322,8a1.334,1.334,0,0,0,0,2.5Z" transform="translate(-81.585 0)" fill="#fff"/>
      </g>
    </g>
  </g>
</svg>
