<svg xmlns="http://www.w3.org/2000/svg" xmlns:xlink="http://www.w3.org/1999/xlink" width="1220" height="679" viewBox="0 0 1220 679">
  <defs>
    <clipPath id="clip-path">
      <rect id="Rectangle_1633" data-name="Rectangle 1633" width="92.97" height="75.228" fill="#c2c2c2"/>
    </clipPath>
    <clipPath id="clip-path-2">
      <rect id="Rectangle_1635" data-name="Rectangle 1635" width="92.079" height="86.832" fill="#fff"/>
    </clipPath>
  </defs>
  <g id="Group_178073" data-name="Group 178073" transform="translate(-560 -3032)">
    <rect id="Rectangle_2331" data-name="Rectangle 2331" width="1220" height="679" rx="32" transform="translate(560 3032)" fill="#b50303"/>
    <g id="Group_26341" data-name="Group 26341" transform="translate(1427.015 3081.772)" opacity="0.5">
      <g id="Group_26340" data-name="Group 26340" transform="translate(0 0)" clip-path="url(#clip-path)">
        <path id="Path_7" data-name="Path 7" d="M22.29,1.22c-.616,9.428-2.579,18.341-7.158,26.654C11.682,34.137,6.7,42.483.359,46.056A.735.735,0,0,0,1.1,47.323c6.738-3.8,11.488-12.265,15.3-18.707,4.9-8.284,6.741-17.9,7.36-27.4.062-.945-1.405-.939-1.467,0" transform="translate(-0.001 0.993)" fill="#c2c2c2"/>
        <path id="Path_8" data-name="Path 8" d="M8.62,2.627C15.895,1.1,23.777.811,30.454,4.648c4.368,2.511,5.682,7.718,9.135,10.992.684.648,1.725-.387,1.038-1.038-4.67-4.43-6.087-9.945-12.462-12.752C21.938-.893,14.61-.125,8.229,1.213c-.924.194-.531,1.608.39,1.414" transform="translate(14.893 0.002)" fill="#c2c2c2"/>
        <path id="Path_9" data-name="Path 9" d="M19.965,7.911c4.353-3.872,14.77-1.836,19.227.317,6.037,2.925,13.057,8.252,16,14.495.4.857,1.666.111,1.264-.739C53.261,15.2,45.053,8.773,38.121,6.1c-4.964-1.916-14.806-3.127-19.194.774-.707.631.334,1.663,1.038,1.038" transform="translate(36.139 8.315)" fill="#c2c2c2"/>
        <path id="Path_10" data-name="Path 10" d="M46.826,10.442c-5.239,1.778-7.46,10.062-9.531,14.5-2.32,4.975-4.714,9.915-7.041,14.888-2.174,4.647-3.79,9.549-6.747,13.779-.414.59.408,1.426,1,1a1.282,1.282,0,0,0,.654-1.22c.088-.945-1.382-.933-1.467,0a.626.626,0,0,1,.073-.047l1,1c4.45-6.363,6.841-14.178,10.267-21.122,1.842-3.729,3.523-7.548,5.28-11.315,1.461-3.133,3.283-8.83,6.9-10.056.889-.3.508-1.719-.39-1.414" transform="translate(45.235 20.108)" fill="#c2c2c2"/>
        <path id="Path_11" data-name="Path 11" d="M33.3,5.431c-5.676,7.393-8.918,15.721-12.564,24.2C17.853,36.348,13.08,43.112,11.226,50.2a.734.734,0,0,0,1.414.39C14.453,43.658,19.161,36.94,22,30.372c3.664-8.463,6.894-16.818,12.564-24.2.575-.751-.7-1.481-1.267-.742" transform="translate(21.653 9.906)" fill="#c2c2c2"/>
        <path id="Path_12" data-name="Path 12" d="M33.493,30.479c-4.585-3.6-8.613-7.874-13.277-11.409C14.452,14.7,7.194,14.62.508,17.091c-.877.326-.5,1.743.39,1.414C9.324,15.389,15.722,17.22,22.3,22.562c3.5,2.843,6.612,6.175,10.15,8.956.736.575,1.781-.455,1.038-1.038" transform="translate(0.023 29.888)" fill="#c2c2c2"/>
        <path id="Path_13" data-name="Path 13" d="M11.532,23.489c1.8.285,3.359-.983,5.087-1.52,5.409-1.675,11.541-.81,16.6,1.481,3.72,1.687,6.545,4.826,9.285,7.75,1.637,1.751,3.1,4.218,5.236,5.415a.734.734,0,0,0,.739-1.267c-2.54-1.423-5.348-5.621-7.378-7.789a27.162,27.162,0,0,0-8.763-6.111,24.777,24.777,0,0,0-9.666-1.737,26.507,26.507,0,0,0-6.439.842c-.645.144-3.558,1.637-4.306,1.52-.924-.147-1.32,1.267-.39,1.414" transform="translate(21.271 38.104)" fill="#c2c2c2"/>
        <path id="Path_14" data-name="Path 14" d="M46.371,10.776C39.2,25.394,34.754,41.666,23.6,53.849c-.637.7.4,1.737,1.038,1.038,11.274-12.324,15.744-28.59,23-43.373.414-.845-.848-1.59-1.267-.739" transform="translate(45.253 20.109)" fill="#c2c2c2"/>
        <path id="Path_15" data-name="Path 15" d="M10.387,4.2c4.664-.848,12.488,1.449,14.624,6.116.393.86,1.657.114,1.264-.739C23.837,4.244,15.359,1.809,10,2.786c-.927.17-.534,1.584.39,1.414" transform="translate(18.306 4.979)" fill="#c2c2c2"/>
        <path id="Path_16" data-name="Path 16" d="M9.293,6.245c2.408-.994,6.31.015,8.607.783,3.271,1.091,5.365,3.943,7.5,6.46.613.722,1.646-.32,1.038-1.038C24.029,9.607,21.825,7,18.288,5.615,15.8,4.635,11.449,3.781,8.9,4.831c-.862.355-.484,1.775.39,1.414" transform="translate(16.273 8.411)" fill="#c2c2c2"/>
        <path id="Path_17" data-name="Path 17" d="M8.716,7.9c5.706-2.538,12.033,3,15.733,6.536.684.651,1.725-.384,1.038-1.038-.877-.839-1.578-2.476-2.866-2.878-1.1-.343-1.376-1.1-2.274-1.619A32.96,32.96,0,0,0,16.83,7.118c-2.579-1.106-6.237-1.649-8.853-.484-.865.384-.117,1.649.739,1.267" transform="translate(14.679 11.569)" fill="#c2c2c2"/>
        <path id="Path_18" data-name="Path 18" d="M7.915,9.238a22.219,22.219,0,0,1,15.909,7.806c.622.713,1.655-.329,1.038-1.038A23.673,23.673,0,0,0,7.915,7.771c-.948-.029-.942,1.437,0,1.467" transform="translate(13.934 15.026)" fill="#c2c2c2"/>
        <path id="Path_19" data-name="Path 19" d="M7.228,11.638c-.041.285,6.09,1.229,6.944,1.435,2.942.713,7.648,2.766,8.657,6,.282.9,1.7.516,1.414-.39-1.875-6.005-12.424-8.871-17.9-8.041a.694.694,0,0,0-.51.513l-.015.094c-.138.924,1.276,1.323,1.414.39" transform="translate(11.224 20.303)" fill="#c2c2c2"/>
        <path id="Path_20" data-name="Path 20" d="M6.256,14.211a15.891,15.891,0,0,1,11.168,2.08c2.095,1.144,3.573,4.031,5.134,5.753.634.7,1.669-.337,1.036-1.038-2.206-2.438-3.576-4.972-6.5-6.568A16.369,16.369,0,0,0,5.866,12.8c-.93.164-.534,1.578.39,1.414" transform="translate(10.316 24.107)" fill="#c2c2c2"/>
        <path id="Path_21" data-name="Path 21" d="M20.76,8.411c3.758-2.262,10.49,1.684,14.09,3.3,4.166,1.875,7.3,4.752,10.446,7.926A.734.734,0,0,0,46.332,18.6c-3.708-3.737-7.44-7.052-12.512-8.944-4.022-1.5-9.467-5.119-13.8-2.514a.734.734,0,0,0,.739,1.267" transform="translate(38.032 12.039)" fill="#c2c2c2"/>
        <path id="Path_22" data-name="Path 22" d="M20.45,9.772c6.788,0,15.237,2.851,19.626,8.39.587.742,1.616-.305,1.038-1.038-4.705-5.94-13.339-8.818-20.664-8.818a.734.734,0,0,0,0,1.467" transform="translate(38.168 16.059)" fill="#c2c2c2"/>
        <path id="Path_23" data-name="Path 23" d="M19.715,11.778c3.517-.933,6.545,1.062,9.731,2.2,3.673,1.314,5.477,3.192,8.331,5.627.716.61,1.757-.422,1.036-1.036-3.1-2.646-5-4.688-8.977-6-3.558-1.179-6.633-3.23-10.511-2.2a.734.734,0,0,0,.39,1.414" transform="translate(36.36 19.5)" fill="#c2c2c2"/>
        <path id="Path_24" data-name="Path 24" d="M18.715,13.978c1.757.041,3.394-.384,5.16-.42,2.018-.038,4.236.871,6.09,1.6,4.585,1.8,6.595,4.993,8.654,9.214.414.851,1.678.109,1.264-.739-2.086-4.286-3.922-7.29-8.3-9.373a27.515,27.515,0,0,0-6.19-2.009c-2.3-.478-4.383.317-6.674.261a.734.734,0,0,0,0,1.467" transform="translate(34.817 23.39)" fill="#c2c2c2"/>
        <path id="Path_25" data-name="Path 25" d="M17.85,16.173c2.684-.062,6.2,1.082,8.912,1.52,2.6.417,7.856,3.544,9.426,5.747.543.76,1.816.029,1.267-.742-1.772-2.488-5.272-4.242-7.941-5.594a14.246,14.246,0,0,0-4.934-1.176c-2.274-.264-4.462-1.273-6.73-1.22a.734.734,0,0,0,0,1.467" transform="translate(33.142 28.432)" fill="#c2c2c2"/>
        <path id="Path_26" data-name="Path 26" d="M17.048,17.874c4.647-.358,8.9.956,13.125,2.834,2.728,1.214,4.447,4.538,7.041,6.064a.734.734,0,0,0,.739-1.267c-2.913-1.713-4.955-5.9-8.39-6.659a61.383,61.383,0,0,1-5.841-2.068,16.778,16.778,0,0,0-6.674-.37c-.939.073-.945,1.54,0,1.467" transform="translate(31.597 31.425)" fill="#c2c2c2"/>
        <path id="Path_27" data-name="Path 27" d="M15.916,19.238a27.515,27.515,0,0,1,12.177,3.086,26.769,26.769,0,0,1,5.3,3.35c.789.625.948,1.253,1.907,1.678.857.381,1.6-.883.742-1.267-1.3-.578-2.538-2.188-3.717-3.069a29.389,29.389,0,0,0-5.964-3.086,25.693,25.693,0,0,0-10.443-2.159.734.734,0,0,0,0,1.467" transform="translate(29.402 34.362)" fill="#c2c2c2"/>
        <path id="Path_28" data-name="Path 28" d="M11.919,22.385c13.128-3,25.924,5.078,35.555,13.4.71.616,1.751-.417,1.036-1.036-10.135-8.763-23.143-16.944-36.98-13.782-.921.211-.531,1.625.39,1.414" transform="translate(21.274 39.208)" fill="#c2c2c2"/>
      </g>
    </g>
    <g id="Group_160554" data-name="Group 160554" transform="translate(1059.985 3538.168)" opacity="0.5">
      <g id="Group_26344" data-name="Group 26344" transform="translate(0 0)" clip-path="url(#clip-path-2)">
        <path id="Path_51" data-name="Path 51" d="M13.408,1.671C20.467,2.164,26.9,5.94,33.42,8.359c7.873,2.922,16.446,2.9,24.465,5.291a.834.834,0,0,0,.444-1.608c-8.039-2.4-16.486-2.632-24.465-5.291C27.015,4.469,20.747.513,13.408,0c-1.074-.073-1.067,1.595,0,1.668" transform="translate(29.444 0.001)" fill="#fff"/>
        <path id="Path_52" data-name="Path 52" d="M39.37.406c-5.6,9.454-13.146,17.98-20.085,26.483-3.306,4.06-7.172,7.629-10.778,11.405C5.545,41.4,3.844,45.056,1.342,48.442c-.64.867.807,1.695,1.438.841,2.785-3.773,4.9-7.7,8.209-11.172,3.723-3.9,7.522-7.642,10.935-11.829,6.522-8,13.61-16.129,18.887-25.035A.835.835,0,0,0,39.37.406" transform="translate(2.761 0.012)" fill="#fff"/>
        <path id="Path_53" data-name="Path 53" d="M51.283,3.872C46.1,10.193,40.671,16.408,36.271,23.3,32.8,28.747,29.626,34.371,26.1,39.785,23,44.562,19.7,50.92,15.643,54.913c-.767.754.41,1.935,1.181,1.178,3.219-3.166,5.331-7.7,7.953-11.382,3.81-5.347,7.185-11.012,10.568-16.639,4.964-8.263,11.018-15.578,17.119-23.014.677-.827-.5-2.015-1.181-1.184" transform="translate(35.956 8.385)" fill="#fff"/>
        <path id="Path_54" data-name="Path 54" d="M1.995,16.319c16.135,1.514,31.567,9.7,46.848,14.491,1.031.32,1.468-1.288.444-1.611C33.832,24.362,18.314,16.182,1.995,14.651c-1.071-.1-1.061,1.568,0,1.668" transform="translate(2.792 34.212)" fill="#fff"/>
        <path id="Path_55" data-name="Path 55" d="M3.9,14.763c-6.552,6.5-4.684,21.84,4.37,25.359,1,.39,1.434-1.228.44-1.611C.8,35.438-.477,21.458,5.08,15.944A.835.835,0,0,0,3.9,14.763" transform="translate(0 33.91)" fill="#fff"/>
        <path id="Path_56" data-name="Path 56" d="M3.107,23.37c7.966.4,15.368,3.923,22.664,6.862a95.705,95.705,0,0,0,23.454,5.9c1.067.137,1.054-1.531,0-1.668a102.674,102.674,0,0,1-25.212-6.725c-6.768-2.725-13.53-5.668-20.906-6.035-1.074-.053-1.067,1.615,0,1.668" transform="translate(5.382 50.689)" fill="#fff"/>
        <path id="Path_57" data-name="Path 57" d="M27.276,4.2c-.841,3.646-2.225,7.642-1.488,11.419.557,2.852,2.479,6.658,5.264,7.869.974.424,1.825-1.011.841-1.441-2.519-1.091-3.81-4.4-4.5-6.872C26.5,11.957,28.16,7.8,28.884,4.648c.244-1.051-1.368-1.491-1.608-.444" transform="translate(59.749 8.422)" fill="#fff"/>
        <path id="Path_58" data-name="Path 58" d="M52.969,9.33c-3.693,3.329-5.8,8.213-8.917,12.049-3.082,3.8-5.764,7.442-8.56,11.472C32.187,37.618,28.411,42,25.442,47c-3.272,5.517-4.593,12.359-9.087,17.129-.734.781.444,1.961,1.181,1.178,3.069-3.256,4.764-7.546,6.555-11.592a71.886,71.886,0,0,1,8.947-14.754c3.683-4.82,6.625-10.528,10.828-14.874,3.96-4.086,6.088-9.791,10.284-13.567.8-.724-.387-1.9-1.181-1.184" transform="translate(37.662 21.273)" fill="#fff"/>
        <path id="Path_59" data-name="Path 59" d="M15.975,19.813c.19,3.729-1.458,7.409-.827,11.125A37.244,37.244,0,0,0,18.841,42c.5.954,1.938.113,1.441-.841a33.608,33.608,0,0,1-3.639-11.672c-.357-3.146,1.164-6.458,1-9.674-.053-1.067-1.721-1.074-1.668,0" transform="translate(35.046 44.405)" fill="#fff"/>
        <path id="Path_60" data-name="Path 60" d="M2.329,16.264c-.1,2.889-.7,5.744-.494,8.64.224,3.149,1.228,6.255,1.014,9.43-.067,1.071,1.6,1.064,1.668,0,.193-2.852-.55-5.761-.924-8.57-.42-3.182.29-6.325.4-9.5.04-1.074-1.628-1.071-1.668,0" transform="translate(4.183 36.112)" fill="#fff"/>
        <path id="Path_61" data-name="Path 61" d="M4.2,16.143l-.057-.053q-.5.655-1.007,1.311a174.347,174.347,0,0,0,17.9,7.459c7.742,2.549,14.924,6.782,23.217,7a.834.834,0,0,0,0-1.668C36.865,30,30.41,26.461,23.6,23.972,16.857,21.507,10.455,18.9,3.977,15.96c-.821-.374-1.725.6-1.011,1.311l.06.057A.834.834,0,0,0,4.2,16.143" transform="translate(6.324 37.087)" fill="#fff"/>
        <path id="Path_62" data-name="Path 62" d="M3.509,18.843c6.345,1.811,12.313,5.4,18.571,7.612,7.1,2.5,14.631,3.813,21.68,6.455,1.011.377,1.444-1.234.444-1.611-6.255-2.342-12.94-3.793-19.348-5.671-7.239-2.118-13.7-6.338-20.9-8.393a.834.834,0,0,0-.444,1.608" transform="translate(6.819 40.174)" fill="#fff"/>
        <path id="Path_63" data-name="Path 63" d="M3.283,19.9c6.8,1.448,13.363,5.648,19.882,8.179,6.929,2.692,14.231,3.893,21.2,6.275,1.024.354,1.458-1.261.444-1.6-6.969-2.382-14.244-3.709-21.2-6.278-6.652-2.459-12.933-6.7-19.885-8.176-1.051-.227-1.5,1.381-.444,1.6" transform="translate(6.264 42.679)" fill="#fff"/>
        <path id="Path_64" data-name="Path 64" d="M4.278,21.753c8.076,2.909,16.539,5.321,24.452,8.683,4.64,1.968,10.474,2.579,14.711,5.3.911.584,1.748-.861.844-1.441-4.63-2.972-11.172-3.8-16.235-5.948-7.559-3.212-15.605-5.421-23.327-8.2-1.014-.367-1.448,1.248-.444,1.6" transform="translate(8.662 46.938)" fill="#fff"/>
        <path id="Path_65" data-name="Path 65" d="M16.735,55.315c8-7.3,12.2-17.847,19.244-26.039A120.538,120.538,0,0,0,51.168,7.112c.494-.954-.947-1.8-1.438-.844A126.793,126.793,0,0,1,33.524,29.576C26.906,37.285,23.1,47.252,15.554,54.134c-.8.727.387,1.9,1.181,1.181" transform="translate(35.714 13.663)" fill="#fff"/>
        <path id="Path_66" data-name="Path 66" d="M50.665,7.981C46.726,17.141,38.99,24.3,33.152,32.166c-3.082,4.146-5.678,8.56-8.84,12.676-3.039,3.95-4.163,10.988-8.71,13.6a.837.837,0,0,0,.844,1.444c2.735-1.578,4.183-4.894,5.638-7.529,3.052-5.547,6.952-10.348,10.111-15.8,5.664-9.8,15.331-17.086,19.912-27.731.42-.977-1.017-1.828-1.441-.844" transform="translate(35.499 17.622)" fill="#fff"/>
        <path id="Path_67" data-name="Path 67" d="M50.826,8.967a73.237,73.237,0,0,0-6.435,9.15A173.709,173.709,0,0,1,32.633,34c-3.156,3.983-6.555,8.133-9.023,12.589-2.669,4.81-3.946,10.261-7.7,14.471-.711.8.414,1.948,1.181,1.184.3-.3.59-.6.887-.891A.834.834,0,0,0,16.8,60.172c-.3.294-.594.594-.891.887.394.394.791.791,1.181,1.184,2.345-2.635,3.84-5.824,5.431-8.95,1.3-2.552,2.2-5.271,3.6-7.789,1.318-2.382,3.6-4.543,5.171-6.838,3.409-4.98,7.819-9.1,11.232-14.044,3.3-4.787,5.648-10.024,9.487-14.474.694-.814-.477-2-1.181-1.181" transform="translate(36.636 20.302)" fill="#fff"/>
      </g>
    </g>
  </g>
</svg>
