<svg xmlns="http://www.w3.org/2000/svg" width="14.685" height="14.652" viewBox="0 0 14.685 14.652">
  <path id="call" d="M4.428,4.14,3.166,5.387a6.978,6.978,0,0,0,1.362,2.3A16.37,16.37,0,0,0,7,10.161a6.926,6.926,0,0,0,2.315,1.362l1.248-1.248a.967.967,0,0,1,.76-.179,6.326,6.326,0,0,1,1.1.172,4.728,4.728,0,0,1,.91.309,2.828,2.828,0,0,1,1.176.954q.373.567.043.882l-1.534,1.534a2.514,2.514,0,0,1-1.677.71,5.9,5.9,0,0,1-2.294-.33,11.613,11.613,0,0,1-2.609-1.3,15.976,15.976,0,0,1-2.624-2.136A16.064,16.064,0,0,1,1.668,8.262,11.644,11.644,0,0,1,.363,5.645a5.854,5.854,0,0,1-.33-2.287,2.512,2.512,0,0,1,.71-1.67L2.277.154q.3-.3.789.064A5.219,5.219,0,0,1,4.112,1.373a3.542,3.542,0,0,1,.43,1.391A1.955,1.955,0,0,1,4.428,4.14Z" transform="translate(-0.02 -0.018)" fill="#fff"/>
</svg>
