<svg xmlns="http://www.w3.org/2000/svg" width="44" height="44" viewBox="0 0 44 44">
  <g id="Group_26329" data-name="Group 26329" transform="translate(-1812 -56)">
    <circle id="Ellipse_18" data-name="Ellipse 18" cx="22" cy="22" r="22" transform="translate(1812 56)" fill="#b40001"/>
    <path id="profile" d="M21.832,20.425a.6.6,0,0,1-.288.469,2.432,2.432,0,0,1-.885.351q-.6.138-1.226.256a13.945,13.945,0,0,1-1.61.182q-.981.064-1.706.1t-1.865.053q-1.141.021-1.727.021H9.306l-1.727-.021-1.865-.053-1.706-.1L2.4,21.5l-1.226-.256-.884-.351L0,20.425q.042-1.876,2.345-3.315A14.563,14.563,0,0,1,8.187,15.2v-.7a5.635,5.635,0,0,1-1.919-1.386,6.731,6.731,0,0,1-1.279-2.1,12.313,12.313,0,0,1-.682-2.58,19.4,19.4,0,0,1-.214-2.974,5.362,5.362,0,0,1,.533-2.431A4.491,4.491,0,0,1,6.1,1.311,6.948,6.948,0,0,1,8.25.33,10.113,10.113,0,0,1,10.916,0a10.174,10.174,0,0,1,2.665.33,6.92,6.92,0,0,1,2.153.981A4.5,4.5,0,0,1,17.2,3.027a5.368,5.368,0,0,1,.533,2.431q0,7.462-4.093,9.083V15.2a14.556,14.556,0,0,1,5.842,1.908Q21.789,18.548,21.832,20.425Z" transform="translate(1823 67)" fill="#fff"/>
  </g>
</svg>
