<svg xmlns="http://www.w3.org/2000/svg" xmlns:xlink="http://www.w3.org/1999/xlink" width="82" height="82" viewBox="0 0 82 82">
  <defs>
    <clipPath id="clip-path">
      <rect id="Rectangle_7248" data-name="Rectangle 7248" width="31.07" height="41.866" fill="#fff"/>
    </clipPath>
  </defs>
  <g id="Group_161386" data-name="Group 161386" transform="translate(-206 -4754)">
    <circle id="Ellipse_19307" data-name="Ellipse 19307" cx="41" cy="41" r="41" transform="translate(206 4754)" fill="#fff" opacity="0.2"/>
    <g id="Group_160944" data-name="Group 160944" transform="translate(231.465 4774.067)" clip-path="url(#clip-path)">
      <path id="Path_52766" data-name="Path 52766" d="M10.1,0A1.309,1.309,0,0,0,8.79,1.314V5.89A1.309,1.309,0,0,0,10.1,7.2H20.979a1.308,1.308,0,0,0,1.3-1.306V1.314A1.309,1.309,0,0,0,20.979,0ZM1.314,2.29A1.308,1.308,0,0,0,0,3.6v36.96a1.308,1.308,0,0,0,1.313,1.3H29.766a1.308,1.308,0,0,0,1.3-1.3V3.6a1.309,1.309,0,0,0-1.3-1.314H24.9V5.9a3.965,3.965,0,0,1-3.91,3.917H10.114a3.966,3.966,0,0,1-3.94-3.917V2.289Zm14.227,11.9A10.507,10.507,0,1,1,5.034,24.694,10.527,10.527,0,0,1,15.541,14.187m0,2.617a7.891,7.891,0,1,0,7.891,7.891A7.871,7.871,0,0,0,15.541,16.8m4.277,4.236a1.308,1.308,0,0,1,.715,2.379l-6.5,4.684a1.308,1.308,0,0,1-1.845-.319l-1.96-2.818a1.308,1.308,0,1,1,2.144-1.5l1.206,1.738,5.427-3.9a1.311,1.311,0,0,1,.687-.261c.042,0,.084,0,.125,0Z" fill="#fff"/>
    </g>
  </g>
</svg>
