<svg xmlns="http://www.w3.org/2000/svg" width="31.322" height="30.982" viewBox="0 0 31.322 30.982">
  <g id="Layer_2" data-name="Layer 2" transform="translate(0.381 0.025)">
    <g id="Layer_1" data-name="Layer 1" transform="translate(-0.381 -0.025)">
      <path id="Path_52620" data-name="Path 52620" d="M15.459,2.5c7.155,0,12.99,5.048,12.99,11.268a6.129,6.129,0,0,1-6.11,6.1h-3.06a5.066,5.066,0,0,0-3.738,8.465,1077.91,1077.91,0,0,1,0,.128.073.073,0,0,1-.055,0,12.99,12.99,0,1,1,0-25.98m0-2.5a15.491,15.491,0,1,0,0,30.973,2.583,2.583,0,0,0,1.887-4.3,2.565,2.565,0,0,1,1.915-4.287h3.06a8.611,8.611,0,0,0,8.593-8.63C30.941,6.136,24.006,0,15.459,0Z" transform="translate(0.381 0.025)" fill="#c40000"/>
      <path id="Path_52621" data-name="Path 52621" d="M7.383,18.243A2.583,2.583,0,1,1,9.967,15.66h0a2.583,2.583,0,0,1-2.574,2.583Zm4.15-7.787a2.583,2.583,0,1,1,2.611-2.583h0a2.574,2.574,0,0,1-2.574,2.583Zm8.657.064a2.583,2.583,0,1,1,2.583-2.583h0A2.574,2.574,0,0,1,20.2,10.521Zm3.573,7.164A2.583,2.583,0,1,1,26.337,15.1h0a2.574,2.574,0,0,1-2.565,2.583Z" transform="translate(-0.054 -0.421)" fill="#efa902"/>
    </g>
  </g>
</svg>
