<svg xmlns="http://www.w3.org/2000/svg" width="27.365" height="26.17" viewBox="0 0 27.365 26.17">
  <g id="Group_160801" data-name="Group 160801" transform="translate(-16.801 0)">
    <path id="Path_52626" data-name="Path 52626" d="M42.747,20.737l1.067-9.883a1.147,1.147,0,0,0-1.92-1l-5.333,4.408a1.211,1.211,0,0,1-1.778-.356L32.437,9.787a1.231,1.231,0,0,0-2.062.071l-2.346,4.124a1.211,1.211,0,0,1-1.778.356L20.919,9.929a1.191,1.191,0,0,0-1.92,1l1.067,9.883A1.215,1.215,0,0,0,21.2,21.874H41.467A1.307,1.307,0,0,0,42.747,20.737Zm-22.255,5.4v1.28a1.123,1.123,0,0,0,1.138,1.138H41.041a1.123,1.123,0,0,0,1.138-1.138V26.14A1.123,1.123,0,0,0,41.041,25H21.7A1.14,1.14,0,0,0,20.492,26.14Z" transform="translate(-0.923 -2.388)" fill="#b50303"/>
    <path id="Union_4" data-name="Union 4" d="M-5729.651-5755.508a2.451,2.451,0,0,1,2.407-2.493,2.451,2.451,0,0,1,2.409,2.493,2.452,2.452,0,0,1-2.409,2.494A2.452,2.452,0,0,1-5729.651-5755.508Zm-11.217,0a2.451,2.451,0,0,1,2.407-2.493,2.451,2.451,0,0,1,2.409,2.493,2.452,2.452,0,0,1-2.409,2.494A2.452,2.452,0,0,1-5740.868-5755.508Zm-11.332,0a2.451,2.451,0,0,1,2.407-2.493,2.451,2.451,0,0,1,2.409,2.493,2.452,2.452,0,0,1-2.409,2.494A2.452,2.452,0,0,1-5752.2-5755.508Z" transform="translate(5769 5758)" fill="#fecb4d"/>
  </g>
</svg>
