<svg xmlns="http://www.w3.org/2000/svg" width="27.959" height="31.066" viewBox="0 0 27.959 31.066">
  <g id="Group_161393" data-name="Group 161393" transform="translate(-1048 -4600)">
    <path id="Path_52618" data-name="Path 52618" d="M1050.771,4608.4h5.033l.508,14.651,11.387.374v5.318l-6.388.869-11.3-.869Z" fill="#efa902"/>
    <path id="Path_52617" data-name="Path 52617" d="M30.959,12.78a2.035,2.035,0,0,0-.093-.419v-.14a1.662,1.662,0,0,0-.3-.435h0l-9.32-9.32h0a1.662,1.662,0,0,0-.435-.3.5.5,0,0,0-.14,0A1.367,1.367,0,0,0,20.164,2H13.873a4.66,4.66,0,0,0-4.66,4.66V8.213H7.66A4.66,4.66,0,0,0,3,12.873V28.406a4.66,4.66,0,0,0,4.66,4.66H20.086a4.66,4.66,0,0,0,4.66-4.66V26.853H26.3a4.66,4.66,0,0,0,4.66-4.66V12.78ZM21.64,7.3l4.023,4.023h-2.47A1.553,1.553,0,0,1,21.64,9.766Zm0,21.109a1.553,1.553,0,0,1-1.553,1.553H7.66a1.553,1.553,0,0,1-1.553-1.553V12.873A1.553,1.553,0,0,1,7.66,11.32H9.213V22.193a4.66,4.66,0,0,0,4.66,4.66H21.64Zm6.213-6.213A1.553,1.553,0,0,1,26.3,23.746H13.873a1.553,1.553,0,0,1-1.553-1.553V6.66a1.553,1.553,0,0,1,1.553-1.553h4.66v4.66a4.66,4.66,0,0,0,4.66,4.66h4.66Z" transform="translate(1045 4598)" fill="#b50303"/>
  </g>
</svg>
